# xmcd
#
# Track frame offsets: 
#        150
#        14850
#        31200
#        50625
#        66975
#        75825
#        93000
#        111100
#        126725
#        150000
#        165025
#        185775
#        201525
#
# Disc length: 3015 seconds
#
# Revision: 0
# Processed by: cddbd v1.4PL0 Copyright (c) Steve Scherf et al.
# Submitted via: ExactAudioCopy v0.90b4
#
DISCID=a60bc50d
DTITLE=Big Jay McNeely - Blow The Wall Down
DYEAR=1991
DGENRE=Blues
TTITLE0=Everybody Needs Somebody
TTITLE1=Blow The Wall Down
TTITLE2=Country Boy
TTITLE3=Zydeco Stroll
TTITLE4=Tequila
TTITLE5=Going To Paint The Town Red
TTITLE6=Harlem Nocturne
TTITLE7=Something On Your Mind
TTITLE8=Tough
TTITLE9=Jay Jay
TTITLE10=Young Girl
TTITLE11=Pretty Girls
TTITLE12=Summertime
EXTD=
EXTT0=
EXTT1=
EXTT2=
EXTT3=
EXTT4=
EXTT5=
EXTT6=
EXTT7=
EXTT8=
EXTT9=
EXTT10=
EXTT11=
EXTT12=
PLAYORDER=
